<?xml version="1.0" encoding="utf-8"?>
<!-- Generator: Adobe Illustrator 21.1.0, SVG Export Plug-In . SVG Version: 6.00 Build 0)  -->
<svg xmlns="http://www.w3.org/2000/svg" xmlns:xlink="http://www.w3.org/1999/xlink" version="1.1" id="Layer_1" x="0px" y="0px" viewBox="0 0 128 128" style="enable-background:new 0 0 128 128;" xml:space="preserve" width="64px" height="64px">
<style type="text/css">
	.st0{fill:#FFFFFF;}
	.st1{fill:#444B54;}
	.st2{fill:#71C2FF;}
	.st3{fill:none;stroke:#444B54;stroke-width:6;stroke-linecap:round;stroke-linejoin:round;stroke-miterlimit:10;}
	.st4{fill:none;stroke:#C95065;stroke-width:6;stroke-linecap:round;stroke-linejoin:round;stroke-miterlimit:10;}
</style>
<g>
	<g>
		<path class="st0" d="M87,59.7c0,12.7-10.3,23-23,23s-23-10.3-23-23V32.3l46,5.5V59.7z"/>
	</g>
	<g>
		<path class="st0" d="M101.1,115.6C93.7,102.7,79.9,94,64,94h0c-15.9,0-29.7,8.7-37.1,21.6L27,119h74L101.1,115.6z"/>
	</g>
	<g>
		<path class="st1" d="M26.9,118.6c-0.5,0-1-0.1-1.5-0.4c-1.4-0.8-1.9-2.6-1.1-4.1C32.4,99.9,47.6,91,64,91s31.6,8.9,39.7,23.1    c0.8,1.4,0.3,3.3-1.1,4.1s-3.3,0.3-4.1-1.1C91.4,104.7,78.2,97,64,97c-14.2,0-27.4,7.7-34.5,20.1C29,118,28,118.6,26.9,118.6z"/>
	</g>
	<g>
		<path class="st1" d="M77.6,29.1l-0.4-0.6c-2.9-4.1-7.7-6.6-12.7-6.6H56c-12.7,0-23,10.3-23,23v0c0,1.7,1.3,3,3,3h5.2    c0.1,0,0.1,0,0.2,0c11.5,0,23.2,0,31.6-7.5v0.1c0.4-0.4,0.8-0.7,1.1-1.1c1.1-1.2,3-1.4,4.2-0.3c1.3,1.1,1.4,3.1,0.2,4.4    c-0.5,0.5-0.9,0.9-1.4,1.4c-1.3,1.3-0.8,3.5,0.9,4.2l0,0c1,0.4,2.1,0.6,3.2,0.7c1.5,0.2,2.7,1.4,2.7,3v6.8    c0,10.6-8,19.7-18.6,20.4C53.8,80.8,44.1,71.6,44,60.1c0-1.6-1.2-3-2.8-3.1c-1.7-0.1-3.2,1.3-3.2,3c0,14.3,11.7,26,26,26    c13.9,0,25.3-10.9,26-24.7c0-0.1,0-0.2,0-0.3V47v-3v-1C90,35.8,84.6,29.9,77.6,29.1z"/>
	</g>
</g>
</svg>
